<?xml version="1.0" encoding="utf-8"?>
<!-- Generator: Adobe Illustrator 16.0.0, SVG Export Plug-In . SVG Version: 6.00 Build 0)  -->
<!DOCTYPE svg PUBLIC "-//W3C//DTD SVG 1.1//EN" "http://www.w3.org/Graphics/SVG/1.1/DTD/svg11.dtd">
<svg version="1.1" id="Layer_1" xmlns="http://www.w3.org/2000/svg" xmlns:xlink="http://www.w3.org/1999/xlink" x="0px" y="0px"
	 width="380px" height="115px" viewBox="0 0 380 115" enable-background="new 0 0 380 115" xml:space="preserve">
<path d="M377.933,15.672l-0.079-3.318l-4.433,0.557l-2.069,1.226l-0.402,0.247c-0.123,0.08-0.307,0.166-0.539,0.271l-10.525,6.025
	l0.201,1.657l-0.009,0.085c-0.028,0.265-0.065,0.502-0.119,0.71l-0.231,0.669l0.102,0.801l-1.279,8.475l-0.102,0.508l-3.854-7.898
	l-3.346,1.433l-1.979,1.585l-0.526-2.875l-1.258-8.19l-4.047,1.57c-0.809,0.346-1.47,0.698-2.017,1.074l-1.678,1.009
	c-0.232,0.102-0.438,0.206-0.624,0.319l-2.791,1.605l-0.341-1.406c-0.111-0.641-0.239-1.238-0.383-1.782l-0.051-0.531
	c-0.123-0.659-0.254-1.26-0.399-1.802l-0.138-0.399c-0.12-0.281-0.188-0.538-0.189-0.723l-1.505-7.039
	c-0.026-0.197-0.089-0.551-0.191-1.06l-0.144-0.489c-0.051-0.132-0.09-0.224-0.101-0.226l-1.354-6.19l-0.657-0.627
	c-0.706-0.675-1.658-1.046-2.698-1.046l-0.674,0.003l-8.577,4.195l-0.217,0.117c-0.254,0.15-0.38,0.199-0.37,0.199h0.001
	l-0.431,0.094l-3.94,2.208l0.366,2.095c0.124,0.708,0.274,1.352,0.448,1.916c0.346,1.943,0.702,3.493,1.087,4.725l0.415,1.852
	c0.116,0.819,0.323,1.772,0.617,2.838l2.505,11.06l-1.887,0.974c-0.348,0.12-0.646,0.256-0.931,0.396l-0.056-0.14l-0.541-1.855
	l-0.268-0.486c-0.159-0.561-0.351-1.057-0.579-1.504l-0.497-1.704l-0.253-0.319l-0.797-2.276l-1.452-0.443l-3.174-0.448
	l-4.985,1.302l-0.42,0.281c-2.446,1.635-4.51,3.51-6.18,5.609l-0.956-3.802l-3.27,1.476l-2.944,1.517l-2.46,1.446
	c-0.798,0.479-1.299,0.726-1.579,0.848l-1.527,0.82l-1.064,0.618c-0.451,0.316-0.833,0.563-1.217,0.77l-3.793,1.914l2.435,9.22
	l0.197,0.34l3.856,12.608c0.08,0.441,0.214,0.814,0.379,1.128l2.788,9.513c-3.823,0.648-6.715-0.649-9.116-4.184
	c0.03-0.234,0.069-0.462,0.118-0.69c2.323-12.734,1.074-21.775-3.818-27.642c-5.456-6.542-15.111-8.493-28.895-5.763l-0.329,0.098
	c-6.526-18.361-20.858-25.437-42.449-20.604l-0.868,0.301c-0.5,0.143-1.104,0.297-1.807,0.466l-2.259,0.589
	c-0.42,0.081-0.8,0.211-1.14,0.391l-2.985,0.946l-3.038,1.138l-0.208,0.183c-1.006,0.341-1.853,0.707-2.574,1.114l-1.755,0.99
	l1.512,11.991l0.199,0.416l0.296,2.35c0.023,0.971,0.189,1.898,0.495,2.768l0.545,4.331l0.221,0.946l-3.718,1.195l-0.629,0.117
	l-5.884,2.104l0.207,2.995l-0.307,15.115l-5.527-6.924l-0.316-0.339c-0.255-0.234-0.34-0.37-0.354-0.395l-4.627-5.838l-3.887,0.494
	l-0.592,1.8c-0.186,0.563-0.329,0.981-0.438,1.251l-0.201,0.895l-0.205,0.337l-0.78,2.668c-0.265,0.476-0.427,0.972-0.476,1.434
	l-0.196,0.188l-0.193,0.896l-0.746,2.243l-0.123,0.461c-0.104,0.564-0.236,0.907-0.33,1.096l-0.487,1.482
	c-0.099-0.18-0.217-0.383-0.36-0.615l-0.719-1.076c-0.138-0.316-0.318-0.64-0.543-0.975l-0.233-0.464l-0.414-0.616
	c-0.313-0.36-0.417-0.58-0.447-0.657l-2.083-3.745l-2.022,0.251c-0.4,0.05-0.748,0.104-1.063,0.166
	c-0.062,0.013-0.122,0.025-0.184,0.039l-0.091-0.046l-2.683,0.61l-1.147,0.292c-0.152,0.054-0.531,0.164-1.359,0.303l-2.879,0.677
	l-0.313,0.024l-0.109-0.057l-3.097,0.805c-0.654-1.298-1.389-2.522-2.289-3.602c-5.456-6.542-15.115-8.493-28.895-5.763
	l-0.522,0.154c-0.82,0.325-1.22,0.399-1.354,0.416l-2.131,0.27l-0.87,4.691l-0.051-0.172L104.458,53l-0.798-2.278l-1.455-0.442
	l-3.171-0.445l-4.983,1.301l-0.42,0.28c-2.447,1.635-4.511,3.509-6.181,5.609l-0.956-3.802l-3.27,1.476l-2.944,1.517l-2.46,1.446
	c-0.421,0.253-0.749,0.435-1.016,0.573c-0.378-5.398-1.797-10.918-4.283-16.547l-2.026-3.537l-3.1-3.496l-4.625-3.431l-2.918-1.53
	L56.77,28.59c-0.195-0.069-0.354-0.126-0.477-0.174l-0.29-0.226l-6.051-1.38l-4.78-0.566l-2.024,0.014l-0.726-0.104l-0.74,0.093
	l-0.474-0.017c-1.028-0.094-2.246-0.068-3.625,0.093c-1.264-0.045-2.339,0.047-3.285,0.266l-11.325,1.426l-6.253,1.409l-4.701,1.246
	l-1.201,0.149l-0.225,0.177l-0.387,0.048l-0.443,0.214c-0.334,0.161-0.493,0.198-0.486,0.198l-8.438,2.589l0.907,4.442l0.163,1.29
	l0.104,0.484c0.146,0.489,0.312,1.139,0.498,1.944l0.182,1.443l0.1,0.476c0.157,0.531,0.33,1.182,0.486,1.798l1.324,6.947
	l3.686,0.063l1.762-0.222c0.142-0.016,0.351-0.018,0.626-0.018L11.3,52.7l0.212-0.026c0.604-0.076,1.389-0.129,2.348-0.161
	l1.563-0.051l1.68-0.198l0.61,0.121l0.63-0.146c0.521-0.121,0.948-0.174,1.298-0.115l0.13,0.949l0.199,0.417l0.299,2.367
	l0.314,1.324l0.391,3.099l0.322,1.357l0.974,6.589l0.301,1.222l1.546,9.943c0.054,0.444,0.158,0.825,0.293,1.152l0.467,3.698
	l0.229,0.458c0.035,0.069,0.045,0.119,0.042,0.2l-0.011,0.254l1.458,8.754l-7.904,1.59l0.353,2.796
	c0.073,0.578,0.177,1.076,0.305,1.499c0.121,0.398,0.31,0.859,0.588,1.437l1.601,5.181l0.824,2.585l1.251,4.645l1.784,0.389
	c0.385,0.083,0.78,0.126,1.177,0.126c0.819,0,1.652-0.179,2.306-0.465l3.069-1.113c0.652-0.205,1.332-0.493,2.068-0.877l6.493-2.979
	c0.741-0.244,1.365-0.539,1.867-0.876c1.543-0.99,2.043-1.172,2.084-1.186l0.382-0.114l2.939-1.712
	c1.507-0.927,2.253-1.434,2.671-1.74l1.868-1.184l0.445-0.354c0.503-0.285,0.935-0.602,1.303-0.955
	c0.573-0.328,1.051-0.7,1.444-1.124l4.891-3.916l4.329-4.427l0.141-0.154c3.535-4.14,6.266-8.397,8.245-12.757l2.011,6.573
	c0.078,0.447,0.214,0.823,0.381,1.14l4.625,15.774l2.043,7.397l5.067-1.275l0.376-0.293l1.46-0.567l0.827-0.426
	c0.189-0.105,0.466-0.224,0.825-0.365l0.765-0.176l0.958-0.609l2.28-0.886c0.896-0.324,1.646-0.681,2.292-1.088l1.841-1.161
	l-7.033-27.841c0.127-0.156,0.244-0.313,0.353-0.472l1.396-1.313l5.174-3.864l2.062-1.352c0.277-0.115,0.518-0.25,0.726-0.396
	l6.448-3.188l-0.077-0.307l0.965-0.285l1.338-0.554l2.211-0.359l0.368-0.317l0.993-0.211c1.854-0.411,3.503-0.619,4.899-0.619
	c2.672,0,4.24,0.644,5.021,2.229c-6.962-1.155-12.915,0.995-17.663,6.284l-0.337,0.455c-4.824,7.999-4.648,16.148,0.506,23.566
	l0.173,0.225c4.643,5.492,10.268,8.307,16.721,8.365l0.067,0.001l0.068-0.003c4.896-0.177,8.994-1.747,12.221-4.676
	c5.257,3.714,11.081,4.806,17.15,3.219l1.857-0.487l1.597-8.226c0.226-1.259,0.337-2.321,0.342-3.248l0.004-0.686
	c0.153,0.215,0.305,0.413,0.454,0.594c0.184,0.318,0.407,0.635,0.667,0.947c0.484,0.625,0.729,1.042,0.851,1.282l0.195,0.386
	l0.613,0.654c0.437,0.61,0.935,1.317,1.576,2.241c0.103,0.131,0.24,0.315,0.351,0.463l5.192,7.631l6.468-25.45
	c14.811,18.209,14.899,18.217,16.523,18.203l2.623-0.017l0.333-2.603c1.275-9.967,2.239-17.57,2.89-22.8l0.13,0.557l0.599,4.749
	l0.178,0.401l0.629,4.842l0.177,0.401l1.487,10.485l0.25,0.409l0.375,2.982c0.072,0.573,0.185,1.084,0.342,1.546l0.805,6.384
	l2.974-0.372c0.959-0.119,1.815-0.291,2.375-0.464l3.172-0.768c0.38-0.113,0.711-0.194,0.991-0.229l2.783-0.657l0.672-0.231
	c0.942-0.159,1.745-0.416,2.44-0.779l1.528-0.797l0.244-5.239l0.183-2.366l-0.006-0.224c-0.025-0.855,0.024-1.842,0.162-3.092
	l0.365-6.27l0.234-0.293l-0.196-1.547l0.113-1.725l0.175-0.576l-0.017-0.493c-0.033-1.064,0.024-1.704,0.079-2.054l0.049-0.31
	l-0.017-0.313c-0.009-0.158-0.014-0.312-0.017-0.461c8.646-0.853,15.548-3.699,20.698-8.47c0.055,4.016,1.383,7.959,3.991,11.713
	l0.173,0.225c4.643,5.492,10.268,8.307,16.721,8.365l0.067,0.001l0.067-0.003c4.897-0.176,8.995-1.746,12.222-4.675
	c5.256,3.712,11.082,4.807,17.151,3.218l1.861-0.487l0.361-1.868l0.391,1.413l5.067-1.275l0.376-0.293l1.46-0.567l0.82-0.424
	c0.191-0.105,0.472-0.225,0.835-0.369l0.763-0.176l0.956-0.606l2.281-0.887c0.903-0.326,1.654-0.684,2.297-1.091l1.835-1.163
	l-7.032-27.836c0.127-0.156,0.244-0.313,0.354-0.473l1.396-1.312l4.232-3.16l0.503,13.055l4.215-2.225
	c0.371-0.196,0.63-0.289,0.781-0.333l0.659-0.278c0.579-0.332,1.072-0.571,1.466-0.712l2.628-1.213
	c0.58-0.177,1.112-0.416,1.589-0.713l4.432-2.023c0.007,0.026,0.015,0.054,0.022,0.08c0.053,0.56,0.159,1.059,0.32,1.506
	c0.054,0.152,0.102,0.337,0.148,0.551c0.121,0.92,0.285,1.702,0.498,2.376c0.131,0.908,0.347,1.938,0.632,3.024l0.721,3.037
	l0.624,3.377l0.186,0.61c0.088,0.208,0.251,0.704,0.345,1.688l0.821,3.368l0.116,0.578c0.12,0.956,0.345,2.033,0.666,3.202
	l1.493,7.264l0.282,0.898c0.034,0.356,0.092,0.751,0.175,1.191l0.191,0.63c0.151,0.354,0.185,0.584,0.187,0.716l0.052,3.894
	l5.363-1.491l1.863-0.827l0.791-0.163l8.249-3.599v-1.997c0-0.459-0.062-0.991-0.192-1.676l-1.96-8.448
	c-0.033-0.256-0.088-0.583-0.176-1l-1.725-7.755c-0.073-0.374-0.2-0.798-0.404-1.35l-1.296-5.778
	c-0.124-0.915-0.336-1.911-0.645-3.035l-0.679-3.17c-0.031-0.207-0.075-0.405-0.131-0.593l0.056-0.558l-0.361-0.641
	c-0.023-0.061-0.048-0.135-0.074-0.224l-0.315-1.579l1.309-0.893l0.404,0.494l0.487,1.018l0.539,0.331l3.349,4.466
	c0.359,0.584,0.705,1.057,0.964,1.336l0.486,0.608c0.342,0.59,0.716,1.083,1.132,1.49l0.452,0.703l0.546,0.641
	c0.298,0.467,0.598,0.863,0.909,1.199l1.887,2.483l-0.215,1.185c-0.016,0.704-0.109,1.107-0.185,1.321l-0.232,0.661l0.066,0.551
	l-0.637,3.12l0.021,0.177l-0.103,0.829c-0.191,0.606-0.297,1.208-0.313,1.78c-0.004,0.103-0.028,0.405-0.168,1.012l-0.925,5.05
	l0.027,0.218c-0.148,0.606-0.232,1.177-0.255,1.725l-1.275,7.251l-0.236,1.461c-0.031,0.442-0.098,0.835-0.196,1.169l-0.614,4.04
	c-0.256,1.069-0.423,1.983-0.512,2.791l-0.182,1.666l1.922,1.494l0.384,0.156c0.43,0.175,0.589,0.293,0.605,0.307l6.531,3.67
	c1.21,0.887,2.486,1.461,3.798,1.706l3.04,0.57l0.477-3.056l0.471-3.06l0.282-0.704l0.021-0.751c0.14-0.483,0.229-0.958,0.27-1.418
	l0.504-2.529l0.04-0.26c0.057-0.521,0.141-0.972,0.248-1.338l0.151-1.263c0.159-0.485,0.271-0.963,0.333-1.424l1.864-9.911
	l0.044-0.342c0.024-0.34,0.11-0.984,0.416-2.283l1.043-5.723l0.031-0.212c0.056-0.513,0.141-0.963,0.251-1.338l1.461-7.994
	l1.717-9.251l0.039-0.256c0.06-0.559,0.14-1.052,0.269-1.609l0.769-4.036l-0.005-0.034l4.181-22.744
	C377.831,17.637,377.954,16.565,377.933,15.672z M120.082,81.29c-0.943-3.315,0.079-4.804,2.029-5.806
	c1.972,0.248,3.082,1.135,3.72,2.938c0.266,1.806-0.049,3.251-0.983,4.495c-0.858,0.453-1.615,0.691-2.211,0.691
	C122.291,83.609,121.257,83.608,120.082,81.29z M256.969,64.049c-0.945-3.315,0.078-4.804,2.028-5.807
	c1.972,0.249,3.083,1.136,3.72,2.938c0.265,1.807-0.05,3.251-0.982,4.495c-0.859,0.453-1.617,0.691-2.213,0.691
	C259.176,66.367,258.143,66.367,256.969,64.049z M218.61,49.867l0.025-0.939l-0.048-1.853l0.009-1.165l-0.025-1.369l-0.163-1.437
	l0.026-0.832l-0.177-3.524l0.098-0.479l-0.135-2.339c7.736-0.316,11.545,2.29,12.356,8.473c-0.354,4.08-2.101,9.312-11.715,10.875
	l-0.08-0.64l0.047-0.466L218.61,49.867z M248.779,45.175l0.538-0.088l0.367-0.318l0.99-0.21c1.854-0.411,3.503-0.619,4.898-0.619
	c2.673,0,4.24,0.644,5.021,2.228c-4.465-0.737-8.514-0.1-12.102,1.84c0.104-0.408,0.222-0.801,0.316-1.219l0.121-0.533
	L248.779,45.175z M42.927,87.004l-0.171,0.07l-4.824-38.291c7.408-0.155,12.673,3.11,16.29,10.096
	C57.71,72.067,54.013,81.271,42.927,87.004z M152.641,85.971c-4.484,1.196-7.742,0.006-10.407-3.916
	c0.03-0.234,0.069-0.462,0.118-0.69c0.776-4.254,1.116-8.061,1.093-11.51l2.028,2.902c0.245,0.401,0.5,0.753,0.768,1.061
	c0.098,0.183,0.211,0.379,0.345,0.595l0.763,0.939c0.302,0.524,0.625,0.981,0.981,1.385l3.738,5.187
	c0.485,0.825,0.955,1.516,1.433,2.102l0.883,1.315l0.102,0.141L152.641,85.971z"/>
<g>
	<path fill="#FFFFFF" d="M103.814,59.999l-0.375-1.033l-0.207-0.857l-0.254-0.458c-0.137-0.571-0.311-1.04-0.52-1.405l-0.303-0.845
		l-0.188-0.713l-0.176-0.223l-0.461-1.315l-0.459-0.14l-1.586-0.142l-3.99,1.042c-4.344,2.901-7.281,6.574-8.814,11.018
		l-0.254-0.458l-1.77-7.037l-0.604,0.272l-2.16,1.155l-1.863,1.167l-0.465,0.204c-0.76,0.457-1.404,0.8-1.93,1.028l-1.287,0.702
		l-0.396,0.345l-0.381,0.096c-0.57,0.4-1.055,0.706-1.453,0.919l-0.093,0.054c0.397-6.61-0.94-13.434-4.05-20.476l-1.879-3.246
		l-0.51-0.523l-2.223-2.469l-4.154-3.007l-0.309-0.108l-0.941-0.471l-0.328-0.252l-0.887-0.429l-2.771-0.975
		c-0.617-0.217-0.979-0.367-1.088-0.452l-5.402-1.232L48.396,29.7l-2.795-0.384l-0.598-0.071l-2.059,0.014l-0.549-0.078
		l-0.578,0.072l-0.889-0.035c-0.893-0.083-1.967-0.046-3.223,0.112c-1.15-0.052-2.107,0.02-2.867,0.214l-11.492,1.447l-0.85,0.254
		l-4.967,1.067l-0.949,0.267l-0.855,0.206l-3.133,0.836l-0.578,0.072c-0.15,0.118-0.465,0.206-0.949,0.267
		c-0.555,0.268-1.025,0.424-1.412,0.473l-2.406,0.744L6.83,35.376l-0.801,0.249l-1.703,0.509l0.381,1.864l0.178,1.401
		c0.17,0.566,0.363,1.327,0.582,2.28l0.201,1.594c0.168,0.567,0.354,1.263,0.557,2.088l0.867,4.551l1.033,0.018l1.545-0.194
		c0.289-0.037,0.777-0.05,1.467-0.038c0.674-0.085,1.551-0.146,2.625-0.183l1.563-0.051l1.885-0.237l0.453,0.09
		c0.92-0.214,1.73-0.267,2.432-0.159c0.76-0.194,1.49-0.236,2.191-0.128l0.4,3.187l0.199,0.416l0.359,2.849l0.291,1.14l0.414,3.284
		l0.291,1.141l0.996,6.742l0.285,1.092l0.291,2.317l0.219,0.561l1.063,7.273c0.035,0.29,0.109,0.477,0.219,0.562l0.475,3.766
		c0.262,0.523,0.381,1.08,0.355,1.671l0.275,2.174l0.236,0.706l0.395,3.139l0.219,0.561l0.721,4.569l-0.416,0.199l-4.164,0.818
		l-1.092,0.285l-2.299,0.438c0.049,0.387,0.113,0.721,0.199,1.004s0.26,0.688,0.52,1.211l0.254,0.85l0.273,0.996l0.254,0.852
		l0.957,2.92l0.055,0.435l0.256,0.851l0.416,0.978l0.83,3.084c0.57,0.124,1.184,0.047,1.834-0.231l2.535-0.907l0.561-0.218
		c0.568-0.17,1.203-0.446,1.906-0.829l0.568-0.17l0.561-0.218l0.979-0.417l0.977-0.417l3.41-1.754
		c0.566-0.17,1.031-0.375,1.393-0.617c1.332-0.854,2.281-1.367,2.85-1.536l1.5-0.926l1.104-0.579
		c1.336-0.822,2.227-1.408,2.674-1.76l0.416-0.2l1.357-0.905l0.398-0.344c0.521-0.264,0.91-0.558,1.164-0.885
		c0.555-0.265,0.959-0.561,1.213-0.888l3.703-2.919l0.525-0.508l0.939-0.707l0.254-0.326l3.738-3.806
		c5.656-6.622,9.164-13.509,10.582-20.653l0.234,0.603l0.461,1.708l0.186,0.319l1.139,3.977l0.256,0.458l1.137,3.977l0.346,0.791
		l0.492,1.95l0.361,0.935l0.285,1.092c0.031,0.259,0.102,0.414,0.205,0.466l0.57,2.184l0.254,0.458l3.918,13.585l0.363,0.935
		l0.951,3.658l1.568-0.395l0.225-0.175l1.869-0.727l0.459-0.254c0.305-0.169,0.77-0.374,1.395-0.616l0.477-0.109l0.771-0.49
		l2.619-1.017c0.688-0.249,1.258-0.518,1.713-0.805L88.58,73.786l0.445-0.741c0.35-0.339,0.619-0.667,0.809-0.984l0.826-0.841
		l0.313-0.235l0.525-0.508l0.525-0.508l5.119-3.735l0.461-0.254l1.852-1.263c0.252-0.063,0.404-0.149,0.459-0.255l0.463-0.205
		l0.549-0.315l1.146-0.634l0.557-0.266l1.852-0.871l-0.395-1.569L103.814,59.999z M44.188,89.729l-1.539,0.635L41.941,90.6
		c-0.555,0.267-1.121,0.436-1.701,0.509l-5.59-44.373c0.137-0.475,0.398-0.737,0.785-0.786c9.869-1.079,17.07,2.87,21.602,11.847
		C61.063,72.626,56.779,83.271,44.188,89.729z"/>
	<path fill="#FFFFFF" d="M139.16,82.818c0.035-0.757,0.115-1.421,0.24-1.992c4.506-24.701-5.219-34.675-29.178-29.924
		c-0.842,0.334-1.535,0.535-2.084,0.604l-0.486,2.367l-0.113,0.651l-0.301,1.509l-0.064,0.646l-0.752,4.166l0.609-0.224l1.094-0.284
		l1.066-0.478l0.947-0.268l1.016-0.128l0.266-0.229l1.721-0.364c9.225-2.045,13.953,0.45,14.186,7.484l-0.217,1.009
		c-7.621-2.604-13.898-1.16-18.83,4.333c-4.246,7.041-4.113,13.811,0.4,20.306c4.072,4.817,8.893,7.251,14.457,7.302
		c5.111-0.185,9.121-2.097,12.031-5.733c5.111,4.49,10.674,5.948,16.688,4.372l0.258-1.454l0.199-1.153l0.805-3.731
		c0.191-1.07,0.291-1.981,0.295-2.735C147.336,90.486,142.586,88.468,139.16,82.818z M126.811,85.257
		c-4.23,2.494-7.408,1.538-9.533-2.871c-1.453-4.787-0.023-8.105,4.289-9.957c3.719,0.186,6.113,1.943,7.188,5.274
		C129.26,80.681,128.613,83.198,126.811,85.257z"/>
	<path fill="#FFFFFF" d="M276.045,65.576c0.035-0.756,0.115-1.42,0.24-1.992c4.506-24.7-5.219-34.675-29.178-29.924
		c-0.842,0.334-1.535,0.536-2.082,0.604l-0.471,2.291l-0.277-1.999C238.715,15.57,225.422,8.433,204.4,13.14l-0.563,0.219
		c-0.598,0.174-1.344,0.365-2.232,0.576l-0.578,0.072l-1.51,0.484c-0.289,0.036-0.477,0.109-0.561,0.217l-1.182,0.347l-0.563,0.217
		l-1.652,0.503l-0.563,0.219l-0.609,0.223l-1.172,0.441l-0.264,0.231c-1.07,0.33-1.941,0.685-2.613,1.063l1.199,9.512l0.199,0.417
		l0.377,2.994c0.004,0.816,0.148,1.567,0.43,2.251l0.59,4.684l0.297,1.188l0.294,2.328l-1.13,0.378
		c-0.217,0.094-0.377,0.114-0.484,0.061l-1.502,0.532l-0.67,0.133l-2.545,0.813l-0.814,0.151l-3.283,1.199l0.061,0.875
		l-0.207,11.209l-0.238,9.398c-0.074,1.22-0.072,2.151,0.01,2.796l-1.619-1.955c-0.416-0.438-0.729-0.841-0.938-1.206
		c-0.404-0.342-0.709-0.696-0.92-1.063l-2.26-2.756l-0.295-0.404l-2.32-2.847l-0.297-0.404l-2.098-2.63
		c-0.406-0.373-0.715-0.743-0.926-1.11l-3.316-4.144l-0.338,0.043c-0.213,0.647-0.381,1.127-0.506,1.437
		c-0.064,0.532-0.205,0.976-0.42,1.329l-0.789,2.699c-0.17,0.217-0.258,0.433-0.264,0.646c-0.004,0.213-0.049,0.446-0.131,0.703
		c-0.082,0.255-0.182,0.439-0.299,0.552l-0.186,0.857l-0.41,1.033l-0.254,0.718c-0.135,0.737-0.334,1.367-0.594,1.891l-0.176,0.561
		l-0.438,1.576l-0.188,0.466l-0.428,1.28l-0.691,2.293c-0.178,0.415-0.271,0.837-0.283,1.263c-0.561-0.55-0.943-1.123-1.148-1.72
		l-0.375-0.639l-0.313-0.549l-1.289-2.046c-0.115-0.148-0.211-0.316-0.283-0.503c-0.074-0.188-0.213-0.447-0.418-0.782l-0.906-1.356
		c-0.063-0.221-0.211-0.496-0.447-0.827l-0.326-0.646c-0.461-0.53-0.787-1.043-0.98-1.543l-0.234-0.314l-0.703-1.284
		c-0.322,0.04-0.602,0.083-0.842,0.13c-0.238,0.048-0.477,0.109-0.711,0.188c-0.236,0.079-0.406,0.093-0.51,0.041l-0.811,0.199
		l-0.814,0.151l-0.855,0.206c-0.439,0.154-1.059,0.297-1.859,0.431l-1.045,0.278l-0.627,0.079l-1.281,0.357l-0.391,0.001
		c-0.439,0.152-0.711,0.205-0.816,0.151l-0.807,0.2l-0.863,0.157l-1.279,0.357l0.277,0.651l1.311,1.846l0.17,0.176l0.309,0.5
		l0.768,1.031l0.375,0.641l4.17,5.851c0.252,0.427,0.504,0.754,0.762,0.982c0.053,0.158,0.182,0.403,0.389,0.737l0.688,0.796
		c0.26,0.49,0.539,0.896,0.842,1.219l3.922,5.44c0.459,0.793,0.9,1.44,1.322,1.942l0.908,1.357l0.713,0.989l0.309,0.5l0.52,0.621
		c0.371,0.608,0.707,1.073,1.01,1.395c0.092,0.217,0.273,0.489,0.543,0.814c0.508,0.656,0.893,1.244,1.156,1.767l0.453,0.483
		c0.475,0.66,1.014,1.426,1.613,2.298c0.117,0.149,0.273,0.358,0.471,0.627l1.445,2.124l6.297-24.779
		c11.84,14.565,17.82,21.807,17.941,21.727c2.373-18.546,3.658-28.845,3.859-30.897l0.305-2.638l0.492-3.496
		c0.074-1.219,0.219-2.545,0.43-3.978c0.076-0.348,0.238-1.273,0.482-2.76l0.678,4.575c0.074,0.579,0.186,1.072,0.334,1.479
		l0.512,4.056l0.279,1.043l0.547,4.346l0.314,1.335l0.42,3.331l0.297,1.189l0.566,4.49l0.205,0.464l0.602,4.781l0.205,0.465
		l0.549,4.346l0.24,0.753l0.645,5.119l0.25,0.409l0.455,3.622c0.061,0.482,0.16,0.88,0.297,1.188l0.475,3.768
		c0.805-0.101,1.49-0.237,2.059-0.407l1.334-0.314l1.037-0.327l0.627-0.079c0.566-0.17,1.061-0.28,1.479-0.333l0.9-0.261
		l1.623-0.352l0.416-0.2c0.805-0.102,1.451-0.281,1.943-0.538l0.16-3.404l0.01-1.082l0.168-1.394
		c-0.029-1.01,0.027-2.129,0.166-3.356l0.047-0.791l0.029-0.936l0.018-1.031l0.299-3.864c-0.041-0.321-0.02-0.538,0.066-0.646
		l-0.092-0.725l0.084-0.501l0.082-1.679l0.139-0.458c-0.033-1.043,0.004-1.914,0.113-2.613c-0.07-1.333,0.031-2.474,0.303-3.425
		c16.633-0.883,26.682-8.983,30.148-24.299l-0.447-3.22l0.641-0.287l0.949-0.267l1.014-0.128l0.266-0.23l1.721-0.364
		c9.225-2.045,13.953,0.451,14.186,7.485l-0.217,1.008c-7.621-2.604-13.896-1.16-18.828,4.333
		c-4.246,7.042-4.115,13.811,0.398,20.306c4.072,4.817,8.893,7.251,14.457,7.302c5.109-0.184,9.121-2.096,12.031-5.733
		c5.109,4.49,10.672,5.948,16.689,4.372l0.256-1.454l0.199-1.152l0.805-3.731c0.193-1.071,0.291-1.982,0.293-2.735
		C284.221,73.245,279.471,71.227,276.045,65.576z M215.967,58.624l0.01-1.08l-0.098-1.949l-0.115-0.917l0.064-0.646l-0.006-1.226
		l-0.215-2.866l0.029-0.937l-0.049-1.955l0.01-1.082l-0.025-1.369l-0.17-1.352l0.029-0.936l-0.117-2.094l-0.068-1.709l0.092-0.453
		l-0.123-2.143c-0.139-1.094-0.139-2.01-0.004-2.746c11.246-1.318,17.373,2.406,18.381,11.173
		C232.957,53.083,227.084,57.846,215.967,58.624z M263.697,68.015c-4.232,2.494-7.41,1.539-9.533-2.87
		c-1.455-4.787-0.023-8.106,4.289-9.958c3.717,0.187,6.113,1.944,7.188,5.275C266.145,63.438,265.498,65.957,263.697,68.015z"/>
	<path fill="#FFFFFF" d="M312.014,36.864l0.555-0.266l1.852-0.871l-0.395-1.569l-0.271-0.603l-0.375-1.033l-0.207-0.857
		l-0.252-0.458c-0.139-0.571-0.313-1.04-0.521-1.405l-0.303-0.846l-0.188-0.712l-0.176-0.223l-0.461-1.315l-0.457-0.14l-1.588-0.143
		l-3.99,1.042c-4.342,2.901-7.281,6.575-8.814,11.019l-0.254-0.458l-1.77-7.037l-0.604,0.272l-2.16,1.155l-1.863,1.167l-0.465,0.204
		c-0.76,0.457-1.404,0.8-1.93,1.028l-1.285,0.702l-0.398,0.345l-0.381,0.096c-0.57,0.4-1.055,0.706-1.451,0.919l-1.1,0.629
		l-0.693,0.333l0.914,3.76l0.363,0.936l0.461,1.708l0.186,0.319l1.139,3.977l0.256,0.458l1.139,3.977l0.344,0.791l0.492,1.95
		l0.363,0.935l0.283,1.092c0.033,0.259,0.102,0.414,0.205,0.465l0.57,2.185l0.254,0.458l3.918,13.585l0.363,0.935l0.951,3.658
		l1.568-0.395l0.225-0.175l1.869-0.727l0.459-0.255c0.305-0.168,0.77-0.373,1.395-0.615l0.477-0.11l0.771-0.489l2.619-1.017
		c0.688-0.249,1.26-0.518,1.713-0.805l-6.846-27.097l0.445-0.741c0.35-0.339,0.619-0.667,0.809-0.985l0.826-0.84l0.314-0.236
		l0.523-0.507l0.525-0.508l5.121-3.735l0.459-0.254l1.852-1.264c0.254-0.063,0.404-0.148,0.459-0.254l0.463-0.205l0.549-0.315
		L312.014,36.864z"/>
	<path fill="#FFFFFF" d="M344.186,75.779l-0.285-1.485l-0.193-0.76l-0.127-0.622l-0.139-0.718l-0.146-0.766l-0.49-1.949
		c-0.084-0.153-0.131-0.319-0.137-0.498c-0.008-0.179-0.051-0.477-0.137-0.891l-0.303-1.237l-0.145-0.374l-0.141-0.719l-0.158-0.862
		l-0.588-2.722l-0.193-0.761c-0.105-0.576-0.182-0.981-0.229-1.221c-0.047-0.241-0.166-0.609-0.359-1.107l-0.158-0.863l-1.193-5.197
		c-0.105-0.837-0.309-1.792-0.607-2.866l-0.127-0.621l-0.588-2.723c-0.031-0.257-0.084-0.414-0.158-0.471l-0.018-0.537
		c-0.086-0.152-0.186-0.434-0.303-0.845l-0.158-0.863l-0.588-2.722c0.65-0.54,1.223-0.938,1.713-1.196l1.943-1.324
		c0.24-0.16,0.557-0.38,0.947-0.659l0.852-0.646l0.994-0.665l0.592-0.369l0.26-0.277l2.037-1.337l0.26-0.277l0.867-0.502
		l-0.029-0.634c-0.018-0.652-0.084-1.183-0.201-1.594l-0.443-2.739l-0.061-0.483c-0.09-0.185-0.141-0.473-0.156-0.863l-0.256-1.244
		l-0.193-0.759l-0.158-0.863l-0.158-0.863l-0.156-0.862l-0.178-1.4l-0.373,0.145c-0.652,0.279-1.174,0.557-1.563,0.834l-1.961,1.18
		c-0.25,0.097-0.42,0.184-0.508,0.26l-0.604,0.272l-0.947,0.658l-0.373,0.146l-0.73,0.437l-3.561,2.114l-0.418-1.368
		c-0.008-0.327-0.061-0.613-0.156-0.863c-0.098-0.25-0.197-0.663-0.303-1.237l-0.158-0.863l-0.285-1.092
		c-0.129-0.769-0.279-1.437-0.447-2.005v-0.392c-0.107-0.576-0.221-1.102-0.348-1.575c-0.277-0.651-0.422-1.271-0.43-1.858
		l-0.447-2.004l-0.146-0.374l-0.455-2.444l-0.162-0.52l-0.268-1.339c-0.021-0.16-0.074-0.448-0.158-0.863
		c-0.193-0.499-0.295-0.911-0.303-1.237l-0.461-2.101l-0.145-0.373l-0.146-0.768l-0.332-1.479c-0.15-0.144-0.355-0.217-0.615-0.216
		l-1.111,0.531l-0.736,0.388l-6.1,2.976c-0.488,0.29-0.906,0.474-1.256,0.55l-1.695,0.95c0.117,0.671,0.256,1.242,0.412,1.713
		c0.348,1.984,0.709,3.558,1.086,4.72l0.156,0.863l0.291,1.14c0.094,0.741,0.289,1.649,0.59,2.723l0.139,0.718l0.316,1.726
		l0.174,0.616l0.127,0.622l0.928,3.855l0.129,0.621l0.156,0.472l1.037,4.726l-4.145,2.141c-0.348,0.109-0.643,0.229-0.887,0.357
		c-0.248,0.129-0.396,0.229-0.453,0.302l-4.303,2.063c-0.426,0.249-0.748,0.421-0.965,0.515l-1.484,0.677l0.477,12.35
		c0.49-0.259,0.941-0.444,1.352-0.563c0.732-0.419,1.379-0.729,1.943-0.932l1.713-0.805l0.881-0.405
		c0.475-0.125,0.877-0.307,1.207-0.544l1.955-0.835l0.361-0.242l5.527-2.462c0.17,0.306,0.27,0.588,0.303,0.845l0.146,0.768
		l0.301,0.845c0.01,0.325,0.094,0.74,0.256,1.242c0.02,0.424,0.08,0.774,0.182,1.057c0.1,0.282,0.193,0.631,0.279,1.044
		c0.113,0.902,0.27,1.633,0.473,2.196c0.105,0.839,0.316,1.873,0.637,3.108l0.127,0.621l0.605,2.476l0.158,0.863l0.314,1.725
		l0.146,0.767c0.277,0.652,0.469,1.512,0.57,2.577l0.176,0.615l0.605,2.475l0.146,0.767c0.105,0.838,0.307,1.793,0.605,2.867
		l0.127,0.621l0.188,0.712l0.588,2.723l0.176,1.008l0.111,0.476l0.176,0.616l0.012,0.489l0.146,0.766l0.301,0.845
		c0.01,0.326,0.063,0.745,0.158,1.256c0.279,0.651,0.422,1.271,0.43,1.858l1.611-0.448l1.715-0.804l0.621-0.128l0.502-0.309
		l5.869-2.455c0-0.262-0.047-0.632-0.139-1.11L344.186,75.779z"/>
	<path fill="#FFFFFF" d="M374.498,15.799l-0.635,0.424l-1.15,0.586c-0.209,0.157-0.563,0.35-1.057,0.575l-1.139,0.683l-0.732,0.437
		l-0.922,0.458l-5.762,3.326c0.023,0.193,0.01,0.341-0.041,0.446c-0.045,0.431-0.111,0.815-0.199,1.153
		c0.023,0.193,0.01,0.342-0.043,0.446l0.043,0.338l-0.654,3.762l-0.059,0.694l-0.654,4.546l-0.066,0.253l-0.676,5.138
		c-0.154,0.608-0.248,1.144-0.289,1.605l-0.27,1.359l0.043,0.338c-0.17,0.479-0.227,0.928-0.174,1.346l-0.369-0.591l-1.24-2.444
		l-0.164-0.518l-2.723-5.643l-0.459-0.922l-0.912-1.799l-1.064-2.221l-0.326,0.14l-6.682,5.354
		c-0.424,0.281-0.768,0.538-1.033,0.767l-2.768,2.165c0.035,0.289,0.195,0.646,0.479,1.067l1.328,1.599l0.266,0.555l0.266,0.163
		l2.709,3.582l0.363,0.544l0.699,0.893c0.291,0.487,0.568,0.877,0.834,1.171l0.641,0.801c0.297,0.552,0.611,0.953,0.938,1.207
		l0.672,1.043l0.393,0.392c0.289,0.488,0.564,0.861,0.826,1.123l2.822,3.715l-0.227,0.912l-0.043,0.447l-0.168,0.61
		c-0.02,0.885-0.137,1.635-0.354,2.251l0.041,0.339l-0.637,3.12c0.027,0.227,0.016,0.375-0.041,0.447l-0.078,0.55l-0.035,0.495
		c-0.174,0.446-0.268,0.875-0.279,1.285c-0.016,0.411-0.096,0.936-0.244,1.575l-0.041,0.448l-0.77,4.02l0.043,0.338
		c-0.209,0.682-0.313,1.283-0.313,1.806l-1.314,7.474l-0.043,0.447l-0.156,0.707c-0.047,0.66-0.15,1.262-0.311,1.805l-0.156,1.491
		l-0.396,2.306c-0.236,0.978-0.393,1.815-0.469,2.512l0.271,0.211c0.553,0.225,0.992,0.465,1.316,0.717l1.209,0.633
		c0.178,0.107,0.424,0.257,0.744,0.446l2.053,1.115l0.217,0.168l0.73,0.35l0.225,0.218l1.098,0.547
		c0.906,0.703,1.828,1.145,2.766,1.32l0.109-0.7l0.041-0.447l0.145-0.804l0.041-0.445l0.211-1.058l0.186-0.464l0.018-0.64
		c0.17-0.48,0.26-0.916,0.277-1.311l0.541-2.717c0.076-0.697,0.193-1.317,0.354-1.86l0.029-0.543l0.037-0.494
		c0.172-0.447,0.283-0.87,0.33-1.269l1.881-9.998c0.047-0.659,0.199-1.529,0.457-2.608l1.043-5.723
		c0.076-0.696,0.195-1.315,0.355-1.859l1.387-7.68l0.041-0.446l0.801-4.172l0.09-0.452l0.029-0.544l0.137-0.459l0.627-3.218
		c0.074-0.697,0.178-1.313,0.305-1.854l0.68-3.568l-0.043-0.338l0.188-0.465l0.455-2.608l0.066-0.254l0.865-4.817l0.072-0.205
		l1.783-9.985l0.041-0.446l0.182-0.515l0.666-3.664c0.225-1.075,0.328-1.938,0.313-2.59L374.498,15.799z"/>
</g>
</svg>
